# xmcd
#
# Track frame offsets:
#	150
#	12642
#	37000
#	64137
#	88137
#	104955
#	130737
#	144000
#	163337
#	198825
#	211850
#	231325
#	251450
#	282375
#
# Disc length: 4032 seconds
#
# Revision: 0
# Processed by: cddbd v1.4PL0 Copyright (c) Steve Scherf et al.
# Submitted via: EasyCDDAExtractor 4.6.9.1
#
DISCID=d20fbe0e
DTITLE=Jimmy Witherspoon - Ain't nothing new about the blues
DYEAR=1994
DGENRE=Blues
TTITLE0=I'm gonna move to the outskirts of town
TTITLE1=Around the clock
TTITLE2=Dream on my mind
TTITLE3=Kansas city (K.C. Lovin')
TTITLE4=Ain't nobody's business
TTITLE5=Past forty blues
TTITLE6=I don't know
TTITLE7=Reds and whisky
TTITLE8=I have had fun if I don't get well no more
TTITLE9=Walking by myself
TTITLE10=S.K. Blues
TTITLE11=Everyday I have the blues
TTITLE12=Stormy Monday
TTITLE13=Ain't nothing new about the blues
EXTD=
EXTT0=
EXTT1=
EXTT2=
EXTT3=
EXTT4=
EXTT5=
EXTT6=
EXTT7=
EXTT8=
EXTT9=
EXTT10=
EXTT11=
EXTT12=
EXTT13=
PLAYORDER=
